<svg
  id="Layer_1"
  data-name="Layer 1"
  xmlns="http://www.w3.org/2000/svg"
  xmlns:xlink="http://www.w3.org/1999/xlink"
  viewBox="0 0 82.47 66.78"
>
  <defs>
    <style>
      .cls-1 {
        fill: none;
      }
      .cls-2 {
        clip-path: url(#clip-path);
      }
      .cls-3 {
        fill: #fff;
      }
      .cls-4 {
        fill: #f4d349;
      }
      .cls-5 {
        fill: #e5bf25;
      }
      .cls-6 {
        fill: #d9b243;
      }
      .cls-7 {
        fill: #827f7f;
      }
      .cls-8 {
        fill: #8c8c8c;
      }
      .cls-9 {
        fill: #4d4b4d;
      }
      .cls-10 {
        fill: #424142;
      }
      .cls-11 {
        fill: #eac323;
      }
      .cls-12 {
        fill: #e8e8e8;
      }
      .cls-13 {
        fill: #efca2a;
      }
      .cls-14 {
        clip-path: url(#clip-path-2);
      }
      .cls-15 {
        fill: #efcd3f;
      }
    </style>
    <clipPath id="clip-path">
      <path
        class="cls-1"
        d="M38.62,20.84a.28.28,0,0,0-.22.34.26.26,0,0,0,.09.16,7.55,7.55,0,0,0,4.89,1.8h.77a7.52,7.52,0,0,0-.77-15h0a.29.29,0,0,0-.29.27.32.32,0,0,0,.07.19,7.7,7.7,0,0,1-4.54,12.24Z"
      />
    </clipPath>
    <clipPath id="clip-path-2">
      <path
        class="cls-1"
        d="M20.62,19.84a10.54,10.54,0,0,0,4.32,1.67h0a3.92,3.92,0,0,1,.68.07,20.43,20.43,0,0,0,10-2c2.06-1.17,4.45-2.52,5.3-5.3a8.29,8.29,0,0,0-.16-5,6.68,6.68,0,0,0-1.83-2.89A7,7,0,0,0,34.5,4.77a7.9,7.9,0,0,0-2,.14h-.09L32,5A15.09,15.09,0,0,0,20.75,17.48,15.49,15.49,0,0,0,20.62,19.84Z"
      />
    </clipPath>
  </defs>
  <title>SwarmerAI_boxed</title>
  <rect class="cls-1" width="82.47" height="66.78" />
  <g id="Layer_1-2" data-name="Layer 1-2">
    <g class="cls-2">
      <path
        class="cls-3"
        d="M68.19-41.82v-.07L-11.31,4l-.07.05L34.49,83.48v.07L114,37.68h.07ZM34.56,83.44-11.27,4.06,68.11-41.78l45.83,79.36Z"
      />
      <rect
        class="cls-4"
        x="5.51"
        y="-25"
        width="91.66"
        height="91.66"
        transform="translate(-3.53 28.46) rotate(-30)"
      />
    </g>
    <path
      class="cls-5"
      d="M47.79,43.86A8.39,8.39,0,0,0,48,47.62c1.43,4.78,7.3,7.9,11.61,6.91a10.06,10.06,0,0,0,2.69-1.06A10.2,10.2,0,0,0,66,49.75a13.29,13.29,0,0,0,1.34-4,26.37,26.37,0,0,0,.48-3.17c.13-1.24.2-2.49.21-3.73a12.5,12.5,0,0,1-4.58,5.77,13.08,13.08,0,0,1-9.56,1.81A14.5,14.5,0,0,1,47.79,43.86Z"
    />
    <path
      class="cls-6"
      d="M58.07,57.17A6.35,6.35,0,0,1,56,56.76c-.11.32-.21.64-.33.94-1.46,3.73-4.13,6.32-7.25,7.21a.85.85,0,0,0-.35,1.15.86.86,0,0,0,.43.39,7.57,7.57,0,0,0,4.82-.64,12.82,12.82,0,0,0,5.92-7.09,16.23,16.23,0,0,0,.58-1.79A6.48,6.48,0,0,1,58.07,57.17Z"
    />
    <polygon
      class="cls-7"
      points="31.71 38.02 33.02 34.77 0.49 21.63 2.12 26.07 31.71 38.02"
    />
    <path class="cls-8" d="M1.31,23.85l.81,2.22,29.59,12,.66-1.63Z" />
    <path
      class="cls-9"
      d="M36.13,34.47l-.51,1.21L45.88,39.8a.56.56,0,0,1,.32.74h0l-1,2.55a.56.56,0,0,1-.74.32h0L34.19,39.3l-.48,1.21a.37.37,0,0,1-.47.2L32,40.2a.36.36,0,0,1-.2-.46l.5-1.24-1.55-.63,1.42-3.55,1.56.62.49-1.24a.37.37,0,0,1,.47-.2l1.26.51A.36.36,0,0,1,36.13,34.47Z"
    />
    <rect
      class="cls-10"
      x="30.34"
      y="36.06"
      width="7.22"
      height="2.09"
      rx="0.29"
      transform="translate(-13.13 54.81) rotate(-68.15)"
    />
    <circle class="cls-11" cx="39.79" cy="39.68" r="3.52" />
    <path
      class="cls-12"
      d="M82.11,9.83A21.63,21.63,0,0,0,49,6.92l-.21.24a10.66,10.66,0,0,1,3.08,3.33,18.12,18.12,0,0,1,6-2.42,19.8,19.8,0,0,1,13.72,1.8h0a26.16,26.16,0,0,0,9.58.25l.88-.17h.13Z"
    />
    <path
      class="cls-13"
      d="M20.62,19.84a10.54,10.54,0,0,0,4.32,1.67h0a3.92,3.92,0,0,1,.68.07,20.43,20.43,0,0,0,10-2c2.06-1.17,4.45-2.52,5.3-5.3a8.29,8.29,0,0,0-.16-5,6.68,6.68,0,0,0-1.83-2.89A7,7,0,0,0,34.5,4.77a7.9,7.9,0,0,0-2,.14h-.09L32,5A15.09,15.09,0,0,0,20.75,17.48,15.49,15.49,0,0,0,20.62,19.84Z"
    />
    <g class="cls-14">
      <path
        class="cls-13"
        d="M126-54.34v-.08L38.32,1l-.07.05L93.69,88.74l0,.08,87.67-55.44h.08ZM93.8,88.58,38.5,1.13l87.44-55.29,55.29,87.43Z"
      />
    </g>
    <path
      class="cls-11"
      d="M66.77,31.4c-.89-2-1.36-3-1.38-3h0a11.15,11.15,0,0,1-3.24,6.25c-3.26,3-8.4,3.73-13.14,1.79a13.74,13.74,0,0,1,0,2.4,14,14,0,0,1-.39,2.39A13.29,13.29,0,0,0,52.26,43a11.63,11.63,0,0,0,5.55.54,10.94,10.94,0,0,0,5.24-2.36,11.17,11.17,0,0,0,3.85-8.48A8.44,8.44,0,0,0,66.77,31.4Z"
    />
    <path
      class="cls-1"
      d="M46.43,26.91c-.24-.37-.49-.74-.76-1.1a10.79,10.79,0,0,0,7.95-9.67c.47.26,1,.54,1.44.83s1.19.76,1.74,1.13a10.35,10.35,0,1,0-11.35,9.24,10.7,10.7,0,0,0,1.27.05C46.62,27.19,46.5,27,46.43,26.91Z"
    />
    <path
      class="cls-15"
      d="M53.62,16.14a10.78,10.78,0,0,1-7.92,9.67l.39.54.37.56c.44.71,1,1.75,1.09,1.87a12,12,0,0,0,9-6.63,11.91,11.91,0,0,0,1-3.13A16.32,16.32,0,0,0,55,17,13.57,13.57,0,0,0,53.62,16.14Z"
    />
    <path
      class="cls-15"
      d="M60,33a9.21,9.21,0,0,0,2.31-3.34,11.12,11.12,0,0,0,1-4.08c-.73-.88-1.48-1.77-2.24-2.66l-1.36-1.59A12.93,12.93,0,0,1,57,26.43a13.8,13.8,0,0,1-8.75,4.49c.12.37.24.79.35,1.25a11.94,11.94,0,0,1,.22,1.31,10.15,10.15,0,0,0,3.48,1.36C52.94,35,57,35.58,60,33Z"
    />
    <path
      class="cls-12"
      d="M70.31,11.41A20.77,20.77,0,0,0,59,9.86,18.14,18.14,0,0,0,52.54,12a10.16,10.16,0,0,1,.66,2.43,23.18,23.18,0,0,1,4.6.86A31.85,31.85,0,0,0,74.1,16c.57-.13,1.14-.28,1.71-.44A18.41,18.41,0,0,0,70.31,11.41Z"
    />
  </g>
</svg>
